<svg xmlns="http://www.w3.org/2000/svg" viewBox="0 0 560.93 578.47"><defs><style>.cls-1{fill:#77a5d0;}</style></defs><g id="Layer_2" data-name="Layer 2"><g id="Layer_4" data-name="Layer 4"><path class="cls-1" d="M461.23,0l3,2.29q14,21.84,18.84,80.19,26.28,31.78,29.48,48.19,9.82,65.16-2.65,117.68,14.35,21.3,17.6,53.08a179.62,179.62,0,0,1-4.06,27.14q-.22,6.72-14.13,41.26-12.63,27.72-33.81,56.05Q525.7,430.41,560,454.7c1.38,3.76,1.18,6.69-.61,8.83q-24.33,14.89-22,18.8-.45,1.11,2.92,6.23L555.48,510q2.7,8.79-6.3,20-6.95,6.56-48.9,15.9-2.91,0-4.15,27.17-2.38,5.81-5.16,5.43-35.52-6.9-104.14-74.33-134.74,54.69-204.9,57.07-16.08-.44-16-17.6-47.88,1.92-85.72-3.42Q17.45,528.31,1.3,515.45q-4-1.87,4.15-5.13l211-61.37q41.87-13.45,41.24-16.51,3.85-7.51-3.43-13.92-18.55-16.42-57.3-35.14c-2.47-1.86-3.21-3.48-2.24-4.84q17.94-15.41,56.88-29.36,13.57-1.46,60.17,4.18,11.06-5.76,34.16-39.11a314.4,314.4,0,0,0,33.94-65.73Q427.83,32.37,461.23,0"/></g></g></svg>