<svg xmlns="http://www.w3.org/2000/svg" viewBox="0 0 1063.86 696.43"><defs><style>.cls-1{fill:#5593de;}.cls-2{fill:#366eb3;}.cls-3{fill:#2b4264;}.cls-4{fill:#77a5d0;}.cls-5{fill:#4084d2;}</style></defs><g id="Layer_2" data-name="Layer 2"><g id="Layer_3" data-name="Layer 3"><path class="cls-1" d="M435.11,108.18S435,86.47,439.37,80.7s17.32-40.08,56.37-39.4,105-5.43,114.8-11.54,32.6-4.42,40.07,0,60.12-1,70.64-6.8,62.83-16.64,76.08-12.9S835,4.28,843.52,3.94s133.14-19.69,171.85,30.57,33.26,196.11,33.26,196.11L435.11,310.09Z"/><path class="cls-2" d="M492.86,58.28H612.4a43.3,43.3,0,0,1,43.3,43.3V301.93a0,0,0,0,1,0,0H449.56a0,0,0,0,1,0,0V101.59A43.3,43.3,0,0,1,492.86,58.28Z"/><polygon class="cls-3" points="577.85 297.04 283.32 297.04 356.26 168.66 577.85 168.66 577.85 297.04"/><ellipse class="cls-3" cx="94.99" cy="529.83" rx="88.64" ry="118.72"/><polygon class="cls-3" points="184.99 589.96 102.46 499.11 222.69 450.04 931.82 350.34 890.05 466.13 666.91 508.01 624.12 500.56 607.25 534.94 539.02 538 517.14 527.81 508.99 547.17 308.27 589.96 184.99 589.96"/><path class="cls-2" d="M110.1,447.32s1.39-101.06,12.35-113.26c11.89-13.24,123.67-50.27,173.09-52.81s149.77,0,149.77,0,25,36.17,25.47,45.84,0,134.5,0,134.5H237.46S206.9,478.4,110.1,447.32Z"/><path class="cls-2" d="M119.91,447.32S16.75,457.08,9.34,466.13s-16.67,50.47,0,62.19,78.9,25,87.79,25.47,162.24-25.47,162.24-25.47l-.56-66.73Z"/><polygon class="cls-1" points="563.17 276.44 578.95 175.57 592.54 172.85 576.53 290.29 563.17 276.44"/><path class="cls-2" d="M686.94,30s59.11,11,64.54,113.57,5.43,126.34,5.43,126.34h6.8s-4.08-106.3-5.44-127-10.56-93.3-61.83-114.07Z"/><path class="cls-2" d="M846.42,3.67S905.53,15,911,120.5s5.44,130,5.44,130h6.79s-4.08-109.35-5.43-130.66-10.57-96-61.83-117.33Z"/><polygon class="cls-4" points="576.53 290.29 1059.18 229.28 1059.18 338.3 575.79 419.83 576.53 290.29"/><polygon class="cls-2" points="295.54 285.83 360.24 190.06 341.89 190.06 282.8 285.83 295.54 285.83"/><path class="cls-1" d="M445.31,281.25s111.57.51,123.79-6.63c0,0,14.78,28,15.29,41.78s-7.14,81-8.15,91.69,0,39.23,0,39.23L470.78,461.59V327.09Z"/><polygon class="cls-2" points="484.03 183.94 445.31 281.25 459.86 281.25 501.52 183.94 484.03 183.94"/><rect class="cls-3" x="263.7" y="232.59" width="12.4" height="214.73"/><rect class="cls-1" x="805.84" y="131.75" width="16.48" height="504.24" transform="translate(1052.15 -484.12) rotate(80.09)"/><polygon class="cls-1" points="470.78 461.58 489.52 499.11 607.25 480.35 576.24 447.32 470.78 461.58"/><path class="cls-1" d="M149.9,493.68s-12.68,28.08-2.27,55.7c0,0,30.57,9,42.11,7.7l80.16-33.51s.19-30.69-9.06-36.68Z"/><ellipse class="cls-2" cx="380.87" cy="565.09" rx="98.07" ry="131.34"/><ellipse class="cls-2" cx="785.61" cy="522.05" rx="88.64" ry="118.72"/><ellipse class="cls-2" cx="931.57" cy="485.36" rx="83.8" ry="112.24"/><ellipse class="cls-5" cx="400.02" cy="563.98" rx="62.61" ry="106.98"/><ellipse class="cls-5" cx="807.01" cy="521.02" rx="54.51" ry="94.92"/><ellipse class="cls-3" cx="412.71" cy="560.84" rx="25.47" ry="42.36"/><ellipse class="cls-3" cx="817.49" cy="522.05" rx="22.42" ry="37.28"/><ellipse class="cls-5" cx="947.61" cy="484.77" rx="54.51" ry="94.92"/><ellipse class="cls-3" cx="958.09" cy="485.8" rx="22.42" ry="37.28"/><path class="cls-1" d="M250.65,500.56s-3.17-56.08,32.15-80.72S407.27,383,439,399.94s27.62,66.19,27.62,66.19a9,9,0,0,1-10,0s-4.08-44.68-42.57-48.53-63.39,83-63.39,83S333.74,517.32,250.65,500.56Z"/><rect class="cls-3" x="82.59" y="220.11" width="12.4" height="199.72"/><path class="cls-4" d="M404.39,103.11S276.86,131.64,263.7,135s-44.07,2-65.13,6.79S48.46,200.25,46.42,205s-4.75,8.83,6.8,15.11,120.56,23.95,178.64,17.83S385.71,224,395.22,226.4s109.35-36,121.92-31.93,79.81-8.15,88.64-10.53,85.25-16,85.59-20.71-38.24-41.1-115.57-40.08S422.05,104.13,404.39,103.11Z"/><path class="cls-3" d="M214.23,459.66l-75-8a16.59,16.59,0,0,1-14.83-16.5V358.19a16.59,16.59,0,0,1,18.15-16.52l76.57,7.22a16.61,16.61,0,0,1,15,16.87l-1.61,77.74A16.6,16.6,0,0,1,214.23,459.66Z"/><path class="cls-3" d="M76.18,523.77,18.5,510.92c-6.49-1.44-11.07-4.48-10.61-7l4.17-23.2c.52-2.95,7.46-4.08,15-2.45l59,12.83c6.66,1.45,11.35,4.58,10.74,7.18l-5.45,23.22C90.61,524.36,83.62,525.43,76.18,523.77Z"/><rect class="cls-2" x="135.13" y="334.86" width="7.21" height="117.41" transform="translate(9.39 -3.18) rotate(1.36)"/><rect class="cls-2" x="17.65" y="474.72" width="4.14" height="38.05" transform="matrix(0.98, 0.18, -0.18, 0.98, 91.36, 4.83)"/><rect class="cls-2" x="35.81" y="478.13" width="4.14" height="38.05" transform="translate(92.3 1.54) rotate(10.62)"/><rect class="cls-2" x="55.48" y="482.72" width="4.14" height="38.05" transform="translate(93.48 -2.01) rotate(10.62)"/><rect class="cls-2" x="76.75" y="487.52" width="4.14" height="38.05" transform="translate(94.73 -5.85) rotate(10.62)"/><rect class="cls-2" x="171.91" y="338.29" width="7.21" height="117.41" transform="translate(9.48 -4.06) rotate(1.36)"/><rect class="cls-2" x="208.81" y="344.76" width="7.21" height="117.41" transform="translate(9.65 -4.93) rotate(1.36)"/></g></g></svg>