<svg xmlns="http://www.w3.org/2000/svg" viewBox="0 0 1208.94 739.47"><defs><style>.cls-1{fill:#5593de;}.cls-2{fill:#366eb3;}.cls-3{fill:#2b4264;}.cls-4{fill:none;stroke:#2b4264;stroke-miterlimit:10;stroke-width:43.22px;}.cls-5{fill:#b9b796;}.cls-6{fill:#70826a;}.cls-7{fill:#edeacc;}.cls-8{fill:#77a5d0;}</style></defs><g id="Layer_2" data-name="Layer 2"><g id="Layer_4" data-name="Layer 4"><polygon class="cls-1" points="549.77 334.61 434.83 334.61 353.5 427.72 353.5 519.56 1101.36 520.19 1107.67 334.61 549.77 334.61"/><path class="cls-2" d="M677.08,77.17s29,14.16,19,32.46S534.78,344.8,534.78,344.8h90.65l176-275.14Z"/><polygon class="cls-2" points="549.77 334.61 369.23 457.28 366.32 542.84 603.87 542.84 635.33 334.61 549.77 334.61"/><polygon class="cls-1" points="516.61 459.08 429.37 544.24 381.82 470.63 482.19 405.8 516.61 459.08"/><polygon class="cls-3" points="635.33 334.61 603.87 542.84 1103.36 542.84 1107.67 334.61 635.33 334.61"/><ellipse class="cls-4" cx="559.3" cy="422.22" rx="65.39" ry="101.8" transform="translate(-76.44 127.39) rotate(-12.17)"/><path class="cls-5" d="M1136.7,197.46c0-51.64-44.12-93.51-98.55-93.51s-98.56,41.87-98.56,93.51a87.64,87.64,0,0,0,.54,9.77h0c.18,1.68.41,3.34.69,5,.17,2.34.12,4.94-.69,6.49-1.74,3.3-18.26,17.3-18.26,21.07s11,12.27,11,12.27.79,7.55.32,8.8,3.77,6,3.77,6-1.41,7.24-1.26,9.44,2.52,5.66,2.52,7.23-2.52,14.26-.94,18.38,2.83,8.2,6.91,9.93,31.46,1.89,31.46,1.89,8.18,11.48,8.18,15.41-14.31,46.24-16.67,50,120.94-18.4,125.5-31.45c0,0-13.67-32.43-2.75-70.63h0C1118,260.56,1136.7,231.09,1136.7,197.46Z"/><path class="cls-5" d="M756.44,489.61s-39.12-16.33-40.26-25.83-44.82-42.51-44.82-42.51S660,407.39,658.45,399.7,646.68,385.23,645.54,382s-11-22.08-13.67-20.27-6.84,2.2-6.84,7.14-.76,11.22,5.32,20.23,13.67,20.21,12.91,26.57-1.52,37.13,14.43,47.38L660,489.61s27.35,15.95,46.33,6.83l43.89,27.35Z"/><path class="cls-6" d="M664.89,479.93s-4.09,33-15.09,53.47l173,37.75V529Z"/><path class="cls-6" d="M725.62,498.8s6.18-20.13,5-28.93l105.9,24.44-20.62,33.43Z"/><ellipse class="cls-3" cx="565.5" cy="420.88" rx="20.76" ry="31.45" transform="translate(-76.02 128.67) rotate(-12.17)"/><path class="cls-5" d="M662.43,494.49l-29-12.25s-46.76-61.86-64.59-71.72c0,0-2.79-5.87-6.57-8.8s-12.86-27.61-14.81-28.24-15.24-2.17-13.84,12.86c0,0-14.26-12.27-18.46-13.23s-44.35,16.76-45.92,20-8.6,6.08-1.89,13.84,34.92-12.16,38.38-11.54,13,12.59,13,12.59-41.84,6.08-49.49,11.53-4.95,12.79-2,17a10.17,10.17,0,0,0,7.24,4.41l51-9.23.21,2.08L474.49,443s-9.75,4.5-7.65,10.69,4.19,7.34,14.47,7.76,46-5.24,46-5.24,6.29,1.15,3.77,6.08-38.37,21.7-38.79,26.21-2,8.81,3.14,10.9,39.95-9.75,46.34-9.22c0,0,13.68,15.09,22.36,18.13s21.47,14.26,50.09,14.26h40.39Z"/><path class="cls-7" d="M969.68,106.31l-9.63-18.78a96,96,0,0,0,42.62,9.84l-9.74-7.59c19.83,6.26,36.12-.69,56.38,4-3.1-6.94-17.15-4.17-22.91-9.13,15.12,1.72,40.26-1.68,54.11,4.61,13.66,6.21,31.55,14.53,43,24.27,7,6,11.31,14.68,13.47,23.65a44.32,44.32,0,0,0,2.69-16.48,70.66,70.66,0,0,1,1.11,20.16,21.51,21.51,0,0,1,12.32,17.68A17.92,17.92,0,0,0,1141.56,146c3.82,3.55,5,9.07,5.67,14.25,4,32.88,3.7,86.16-27.72,97.62-8.12,3-15.48,9.49-20.13,16.77s-8.74,11.77-3.59,18.71a24.24,24.24,0,0,1-6-16.24,65,65,0,0,0-2.25,24.34l-7.63-24.31a30.8,30.8,0,0,0-7.8,17.35A162.68,162.68,0,0,1,1072,273a27.83,27.83,0,0,0-6.57,11.64,19.39,19.39,0,0,1,.81-11.71,35.32,35.32,0,0,0-7.45,16.32c-2-12.14,7.5-23.87,6-36.09,9.62-.77,17.52-9.35,19.19-18.86s-2.07-19.4-8.27-26.81c-1.17-1.39-2.61-2.81-4.42-2.93a6.9,6.9,0,0,0-3.82,1.27,46.68,46.68,0,0,0-17.35,18.35,172.91,172.91,0,0,1-2-29.37,22.1,22.1,0,0,0-5.67,17.3,338.21,338.21,0,0,1-21.21-38.39,44.57,44.57,0,0,0,2.56,23.25,117.35,117.35,0,0,1-33-50.05,80.53,80.53,0,0,0-13,34,76.37,76.37,0,0,1-6.59-23.4,122.29,122.29,0,0,0-6.19,31,122.83,122.83,0,0,1-10.36-41.87,85.94,85.94,0,0,1-26,32.09l10.86-34.79c-2.89,4.94-8.85,7.43-14.58,7.65s-11.33-1.47-16.81-3.15a99.57,99.57,0,0,0,44-30.54l-22.34,1.41c13.78-1.28,28.41-5.16,39.85-13"/><ellipse class="cls-8" cx="436.1" cy="484.55" rx="21.99" ry="25.79" transform="translate(-204.68 364.66) rotate(-37.42)"/><path class="cls-6" d="M969.2,374.43s114.24-43.17,122.63-41.49a91.11,91.11,0,0,0,15.85,1.67l-6.32,185.58H819.65s79.26-123.51,92.26-129.38,37.12-15.52,38.17-24.74-14.68,10.48-14.68,10.48-1.26-13,7.13-18.87,38.6-18.19,38.6-18.19Z"/><path class="cls-1" d="M1206.44,588.14V44.25c0-20.49-23.19-34.24-34.51-41.16S589.4,1.83,564.24,10.64,318.89,298.76,318.89,298.76s-298.51,84.72-308.7,107C1.86,424,.34,544.65.06,588.14H0V739.47H1208.94V588.14ZM369.23,457.28c4.4-33.34,205.08-363,269.24-374.93s446.65-32.08,464.26,13.84c12.91,33.64,4.2,289.52-1.37,424H366.47C366.77,494.74,367.53,470.11,369.23,457.28Zm-2.76,62.91.2,67.95h-.16C366.34,572,366.17,545.69,366.47,520.19Z"/></g></g></svg>