<svg xmlns="http://www.w3.org/2000/svg" viewBox="0 0 1482.94 895.91"><defs><style>.cls-1{fill:#366eb3;}.cls-2{fill:#b9b796;}.cls-3{fill:#70826a;}.cls-4{fill:#fff;}.cls-5{fill:#edeacc;}.cls-6{fill:#4f5b4a;}.cls-7{fill:none;stroke:#2b4264;stroke-miterlimit:10;stroke-width:80px;}.cls-8{fill:#77a5d0;}</style></defs><g id="Layer_2" data-name="Layer 2"><g id="Layer_5" data-name="Layer 5"><rect class="cls-1" width="1245.54" height="765.17"/><path class="cls-2" d="M681.35,176.63,577.42,404.86l-93.73-72.68S440.89,213,437.5,210.6s-55.57,20.55-71.32,25.81c-13.71,4.57-41.65,4.2-47.55-9.17-7.58-17.21-20.44-54.71-20.44-54.71l-22-30.95c-7.66-1-20.8-8.72-22.76-14.53s6.94-18.68-4.41-22c-11.89-3.47-37-18.76-37-18.76-.34-6.79,10.88-51.62,15-61.81,2.45-6.11-3.41-16.85-8.49-24.48H643.77c-5.92,23.21-17.62,39-23.55,48.93-4.06,6.76-3.24,20,0,34.91a265.69,265.69,0,0,0,14.91,45.25C646.71,155.92,681.35,176.63,681.35,176.63Z"/><path class="cls-3" d="M260.48,79.7c-10.19-2.12-15.88,9.17-15.88,9.17Z"/><path class="cls-4" d="M274.33,132.64c5.95-9.7,40.62-42.88,63.55-59.29,0,0-7.43,57.1-23.39,77C303.39,145.6,292.79,134.43,274.33,132.64Z"/><path class="cls-3" d="M299.17,133.22c-6.69.73-21.77-5.31-21.77-5.31l-3.63,4.78L293,141.1l21.28,9.3c17-5.55,33.54-75.3,23.61-77.05C335.47,86.25,305.86,132.5,299.17,133.22Z"/><path class="cls-5" d="M651.84,0a150.76,150.76,0,0,1-6.24,28.66C639.45,48,630.13,66.09,620.25,83.84c-2,3.6-4,7.17-6,10.74a380.86,380.86,0,0,0-7-57.31c-5.67,25.84-11.36,52.25-8.32,78.53-13.29-13.43-26.68-27-36.89-42.88S544.91,38.41,546,19.54a151.31,151.31,0,0,0-5.37,61.56c-11.85-13.7-22.47-53-28.85-81.1Z"/><path class="cls-3" d="M351.24,222.48S483,138.6,491.16,119.92"/><path class="cls-3" d="M491.16,42.48s9.85,37.36,4.08,51"/><path class="cls-3" d="M287.39,262.9S134.56,351.37,121.31,371.75s-75.39,430-75.39,430H260.48L285.35,612.2l21.4,189.51H1105c30.72,18.54,3.36-475.19-73.87-513-39.25-19.22-311.26-77.95-311.26-77.95s3.57-41.77-8.15-47.88-38.52,8.32-38.52,8.32-97.16,190.87-95.8,233.66c0,0-27.68-55.53-34.81-58.59s-58.93-14.09-58.93-14.09-40.07-117-46.19-121.58C437.5,210.6,369.58,228.76,287.39,262.9Z"/><circle class="cls-6" cx="537.17" cy="385.68" r="12.06"/><path class="cls-6" d="M531.64,562.43s-5.72,125.47-24.85,133.41-155.53,30.64-181.36,24.21c0,0,128.2,28,169.33,17.4s61.71-21.18,64.1-37.07S551.21,540,551.21,540Z"/><path class="cls-6" d="M318,540l19,42.11,64.52,4.76s23.78,16.3,31.93,15.62,29.88-19.7,29.88-19.7l52.31-2L551.21,540l-26.1,47.55-58.4,8.15-24.38,17.66-38.79-19-72-5.44Z"/><path class="cls-6" d="M915.75,562.43S910,687.9,890.9,695.84s-155.53,30.64-181.36,24.21c0,0,128.2,28,169.34,17.4s61.7-21.18,64.09-37.07S935.32,540,935.32,540Z"/><path class="cls-6" d="M702.07,540l19,42.11,64.53,4.76s23.77,16.3,31.92,15.62,29.89-19.7,29.89-19.7l52.3-2L935.32,540l-26.1,47.55-58.4,8.15-24.38,17.66-38.79-19-72-5.44Z"/><path class="cls-6" d="M406.6,232.16l7.13,157.93s63.68-46.87,77.43-37.7l-23.43,45.35-71.32,7.12Z"/><path class="cls-6" d="M614.45,355.44s25.47-44.32,33.62-42.79,40.75,61,40.75,61l30.57-141.45L696,404.86s-31.55-55.53-43.29-63.68S614.45,355.44,614.45,355.44Z"/><path class="cls-7" d="M908.11,802.22c-.05-.17-.11-.34-.16-.51a323.7,323.7,0,0,0-15.06-38q-1-2.22-2.13-4.41a324.64,324.64,0,0,0-34.08-54.87c-1.66-2.15-3.33-4.28-5-6.39a324.4,324.4,0,0,0-440-61.1q-3.74,2.64-7.37,5.37a326.54,326.54,0,0,0-46.86,42.92c-1.12,1.24-2.23,2.5-3.32,3.76a323.12,323.12,0,0,0-31.32,42.47q-5.38,8.67-10.2,17.69-4.57,8.52-8.63,17.35c-.32.68-.63,1.36-.94,2.05a322.38,322.38,0,0,0-13,33.63"/><path class="cls-2" d="M351,545.37c-4.77-14.09-5.78-53.89,25.2-55.86s44.12,2.26,51.7,11.5,24.44,91.88,25.28,101.45,9.08,31.81,3.49,40-20.74,12.39-26.23,8.84-38.05-27.43-39.08-37.42C391.4,613.85,355.8,559.47,351,545.37Z"/><path class="cls-2" d="M303.31,598.71s1.75-31.31,20.55-35.16,30.1-3.3,38.16,4.22,45,68.21,46.51,91,1.24,30.64-8.54,36.3-35,9.15-38.93,3.45S311,634,303.31,598.71Z"/><path class="cls-2" d="M254.43,663.37S249.2,624,265.91,613.56s38.19-11.43,42.69-6.35,58.83,90.6,56.51,94.76,1.05,22.63-10.39,26.42-24.6,6.24-32.39,2.94S258.83,671,254.43,663.37Z"/><path class="cls-2" d="M219.22,699.91s-1.82-25.74,10.72-33.34,29.54-2.06,29.54-2.06,49.08,57.73,50.06,67.93,7.5,19.53-2.18,31.11-32.72,3.59-38.54.47S222.37,712.22,219.22,699.91Z"/><path class="cls-2" d="M429.94,517.75s54.65-25.19,60.12-32.7,34.22-3,35,23.84-5.2,47.05-20.75,53.65c0,0-38.7,28.6-58.58,27.78Z"/><path class="cls-2" d="M929.41,623.46c7.82-12.66,17.76-51.21-12-60.11s-43.49-7.73-53-.44-44.5,84-47.48,93.14-16,29-12.4,38.17S822,711,828.16,708.74s43.24-18.15,46.5-27.66C874.66,681.08,921.59,636.11,929.41,623.46Z"/><path class="cls-2" d="M963.9,686.17s5.34-30.9-12.11-38.89-28.59-10-38.13-4.48-59.15,56.33-65.8,78.15-8.11,29.58.15,37.29,32,16.8,37.14,12.13S948.44,718.77,963.9,686.17Z"/><path class="cls-2" d="M997,760.13l0,0c-3.13,3.36-22.86,16.65-42.22,28.82-7.32,4.6-14.58,9-20.88,12.71l-.86.51H886.75l-.87-.51-1.29-.77c-10.28-6.27-2.85-23.5-4.17-28.08a2,2,0,0,1,.36-1.22c1.15-2.16,4.82-6.59,10-12.3,19.9-22,61.89-63.11,66.06-66.08a7.65,7.65,0,0,1,3.88-1.15c8.3-.64,24.64,5.35,36.28,16.95C1010.63,722.66,997.52,758.64,997,760.13Z"/><path class="cls-2" d="M1023.57,801.71c0,.18-.09.35-.13.51H939.26l.56-.51c4.37-3.94,9.54-8.32,14.91-12.71,17.52-14.34,37-28.85,37-28.85a41.56,41.56,0,0,1,5.19,0c6.07.31,16.19,1.93,23.12,8.68C1028.79,777.28,1025.1,795.64,1023.57,801.71Z"/><path class="cls-2" d="M858.76,578.77s-47.58-36.85-51.22-45.41-32.67-10.6-39.45,15.35-5.53,47,8.13,57c0,0,31.27,36.58,50.82,40.25Z"/><path class="cls-8" d="M1106,0h173.21l203.78,895.91H0V692.83s1210.9,33.62,1228.22,4.08S1106,0,1106,0Z"/></g></g></svg>