<svg xmlns="http://www.w3.org/2000/svg" viewBox="0 0 2075.48 707.74"><defs><style>.cls-1{fill:#77a5d0;}</style></defs><g id="Layer_2" data-name="Layer 2"><g id="Layer_5" data-name="Layer 5"><path class="cls-1" d="M1903.3,410.72a90.41,90.41,0,0,0,9.17-39.34c0-73.06-91.24-132.29-203.78-132.29-51.78,0-99,12.55-135,33.2-13-64.8-93.9-114.71-191.72-114.71a274.4,274.4,0,0,0-62.88,7.19C1292.73,70.43,1188.87,0,1064.77,0,938.71,0,833.54,72.65,809.23,169.24A173.15,173.15,0,0,0,602,235.8a106,106,0,0,0-171.34,63.53c-22.54-10.62-49.16-16.76-77.7-16.76-71,0-130.2,38-143.79,88.46C90.52,379.62,0,425.14,0,480c0,61,111.85,110.46,249.82,110.46,71.87,0,136.63-13.42,182.21-34.9a134,134,0,0,0,219.3,72.34c34.45,30.32,83.34,49.26,137.57,49.26a219.43,219.43,0,0,0,91.25-19.45A182.74,182.74,0,0,0,1174,596.39,229.86,229.86,0,0,0,1263.11,614c51,0,97.46-16.08,132.59-42.49a173.34,173.34,0,0,0,322-7.15c31,34.83,95,58.74,168.91,58.74,104.32,0,188.89-47.65,188.89-106.42C2075.48,461.12,1999.8,415.49,1903.3,410.72Z"/></g></g></svg>