<svg xmlns="http://www.w3.org/2000/svg" viewBox="0 0 1184.11 504.38"><defs><style>.cls-1{fill:#b9b796;}.cls-2{fill:#edeacc;}</style></defs><g id="Layer_2" data-name="Layer 2"><g id="Layer_5" data-name="Layer 5"><path class="cls-1" d="M1044.49,504.38H26.66C10.64,458.15,0,401.43,0,401.43,35.67,296.49,67.25,322,67.25,322c-11.21-31.59,0-322,0-322h949.59c22.27,69.86-23.87,345.27-24.45,348.74.79-1.41,27.81-49.88,48.9-26.78C1059.78,342.2,1051.64,440,1044.49,504.38Z"/><path class="cls-2" d="M481.41,246.83c-1.9-.79-123.2-51.76-154.41-112.62a121.82,121.82,0,0,1-10.36-29C306.73,61.11,319.5,15.76,324.76,0h197.3C539.82,45.83,564,94,586,134.37c30.41,55.79,56.78,96.86,56.78,96.86C453,223.94,388.14,72.07,388.14,72.07,367.72,113.49,479.81,244.94,481.41,246.83Z"/><path class="cls-2" d="M727.22,204.79l-.91-.4q-6.37-2.76-12.38-5.72c-132.72-65.19-137.5-195-137.5-195-19.43,18-2.95,88,9.55,130.74,5.74,19.69,10.65,33.63,10.81,34.11-1.24-1.19-80.53-77.58-86.63-134.6A105.79,105.79,0,0,1,512.25,0H702.56c.41,18.24,1.56,37,3.16,55.38C712.48,133.25,727.22,204.79,727.22,204.79Z"/><path class="cls-2" d="M705.72,55.38c-16.16,29.13,10.48,118,20.59,149,2.14,6.58,3.54,10.56,3.62,10.81-.35-.34-6.78-6.53-16-16.53-23.81-25.81-66.23-77-70.63-118.07-3.29-30.79,8.94-60.06,21-80.6H836.56c-3.09,45,1.19,99.36,6.94,146,7.26,58.92,16.86,105.53,16.86,105.53C714.66,188.74,709.57,50.35,709.57,50.35A19.84,19.84,0,0,0,705.72,55.38Z"/><path class="cls-2" d="M1145.45,325s-231.86-46-302-179a170.75,170.75,0,0,1-17-48.48A195,195,0,0,1,832.76,0h188.81a213.36,213.36,0,0,0,11,30.19c4.33,9.12,54.48,146.42,151.5,134.87,0,0-124.26,52.26-172.67-3.12C1012.16,163.68,1058.4,275,1145.45,325Z"/><path class="cls-2" d="M113.3,194.7S93,311.11,131.76,399.36c-2.36-2.67-177.89-202-120.08-356.64A201.37,201.37,0,0,1,33.55,0h187C207,35.1,194.17,73.3,190.9,99.1c-.37,2.94-3.3,17.64-5.14,37.9-.24,2.6-.46,5.3-.65,8.08-3.29,47.11.81,116.93,50.11,145.22C233.47,289.92,121.55,265.23,113.3,194.7Z"/><path class="cls-2" d="M331.57,232.3S241.25,194.76,185.76,137q-5.58-5.79-10.62-11.85C153.62,99.32,140,70,144.1,38.56A162,162,0,0,1,153.89,0H261.48c-8.67,33.59-11.41,69.89.81,101.88C296.93,192.56,331.57,232.3,331.57,232.3Z"/><path class="cls-2" d="M420.77,321.08c-1.64-.67-175.29-72.34-235.66-176a169.2,169.2,0,0,1-10-19.93c-8.58-20.5-12.39-42.08-9.45-64.46A213.08,213.08,0,0,1,182.78,0H327.84c-9.75,34-15.29,70.44-11.2,105.2a166.24,166.24,0,0,0,9.87,40.6C373.28,266.73,420,320.25,420.77,321.08Z"/></g></g></svg>