<svg xmlns="http://www.w3.org/2000/svg" viewBox="0 0 678.82 633.52"><defs><style>.cls-1{fill:#b9b796;}.cls-2{fill:#fff;}.cls-3{fill:#70826a;}.cls-4{fill:#edeacc;}</style></defs><g id="Layer_2" data-name="Layer 2"><g id="Layer_5" data-name="Layer 5"><path class="cls-1" d="M354.4,194.81S339.33,47,348.65,19.61s54.47-21.18,60.11-10.7,55.32,132.67,56.93,218.16Z"/><path class="cls-1" d="M641.49,623.84s50.81-148.39,33.88-198.39S623.75,283,610.85,247.77,568.91,131.9,572.14,98s-58.87-33.85-75.81-9.66-29,71.91-14.07,124.18S469,247.77,469,247.77L530.2,633.52Z"/><rect class="cls-2" x="-2.07" y="64.66" width="509.09" height="60.33" rx="16.36" transform="translate(24.15 -48.72) rotate(11.57)"/><path class="cls-3" d="M287.71,94H488.35a15.7,15.7,0,0,1,15.7,15.7v28.94a15.7,15.7,0,0,1-15.7,15.7H287.71a0,0,0,0,1,0,0V94A0,0,0,0,1,287.71,94Z" transform="translate(32.96 -76.89) rotate(11.57)"/><path class="cls-1" d="M236.66,633.52S130.2,573.84,122.14,472.23c0,0-49.19-106.45-50-125.81s42.74-39.52,51.61-59.68c0,0-7.26-55.64,4.84-69.35S185,204.49,185,204.49s-28.22-33.88-12.9-48.39,56.58-34.15,80-57.54,98.6,10.76,127.86-2.14,23.12,53.36-15.36,67.87-72.31-3.35-87.63,9.55,19.71,40,19.71,40l74.71,75.39-17-94.46,111.29,32.26L530.2,633.52Z"/><path class="cls-3" d="M133.67,255.29s62.83,28.89,74,10.21c0,0,89.49,113.86,153.17,80.83,0,0-57.39,57.74-155.88-57.74C205,288.59,154,288.56,133.67,255.29Z"/><path class="cls-3" d="M103.78,365.83s37.7.54,38-19.5c0,0,58.07,72,110.71,58.41,0,0-61.81,33.23-106-38.91C146.57,365.83,123.48,389.74,103.78,365.83Z"/><path class="cls-4" d="M235.21,387.76s43.82-17,43.82-21.93-42.12-40.56-61.82-30.37S200.91,368.41,235.21,387.76Z"/><path class="cls-4" d="M285.14,320.52s67.58-12.23,79.47-2.72c0,0-48.43-51.62-63.44-53.66s-32,.34-32.33,11.55S285.14,320.52,285.14,320.52Z"/><path class="cls-4" d="M339.71,130.16S372,100.42,382.08,102c0,0-48.57-6-64-3.13S292,109.59,299.84,116.74,339.71,130.16,339.71,130.16Z"/><path class="cls-3" d="M499.1,263.48c-3-3.69,9.91,26.47,31.1,40.06v30.1s-81.46,41.22-93.64,89.44-13.63,85.59,0,106c0,0,10.92-147.74,106.69-189L540.7,299.8S513.19,281.07,499.1,263.48Z"/><path class="cls-3" d="M178.16,423.34S217,442.7,217.47,459c0,0,119.38,14.26,119.29,75.91,0,0-40.36-58.82-131.6-69.8C205.16,465.11,208.89,446.77,178.16,423.34Z"/><path class="cls-3" d="M279,165.65s-16.65,4.42-26.5,0c0,0-8.15,26.49-17.66,25.81,0,0,32.27,4.08,38.72,16.3C273.59,207.76,246.42,192.82,279,165.65Z"/></g></g></svg>