<svg xmlns="http://www.w3.org/2000/svg" viewBox="0 0 1603.72 717.84"><defs><style>.cls-1{fill:#366eb3;}</style></defs><g id="Layer_2" data-name="Layer 2"><g id="Layer_5" data-name="Layer 5"><path class="cls-1" d="M71.78,130.59c3.52,28-9.64,52.74-29.38,55.21S3.8,167.57.29,139.55,26.85,61.87,26.85,61.87,68.27,102.57,71.78,130.59Z"/><path class="cls-1" d="M354.31,328.07c2.92,23.28-8,43.82-24.41,45.88s-32.07-15.15-35-38.43S317,271,317,271,351.39,304.79,354.31,328.07Z"/><path class="cls-1" d="M521.38,99.25c2,15.56-5.36,29.3-16.33,30.67s-21.44-10.13-23.39-25.69,14.76-43.16,14.76-43.16S519.43,83.68,521.38,99.25Z"/><path class="cls-1" d="M1306.07,593.23c4.94,39.41-13.57,74.19-41.34,77.67s-54.29-25.64-59.24-65.06,37.38-109.27,37.38-109.27S1301.12,553.82,1306.07,593.23Z"/><path class="cls-1" d="M890.24,543.79c2.83,22.58-7.77,42.51-23.69,44.51S835.44,573.6,832.6,551,854,488.39,854,488.39,887.41,521.2,890.24,543.79Z"/><path class="cls-1" d="M527.52,646.22c4.54,36.21-12.46,68.16-38,71.36S439.66,694,435.11,657.81,469.45,557.4,469.45,557.4,523,610,527.52,646.22Z"/><path class="cls-1" d="M709.37,288.21c3.8,30.35-10.44,57.12-31.83,59.8s-41.8-19.74-45.6-50.08,28.77-84.14,28.77-84.14S705.56,257.87,709.37,288.21Z"/><path class="cls-1" d="M1008.71,84.14c2.52,20.12-6.92,37.87-21.1,39.65s-27.72-13.09-30.25-33.21,19.08-55.8,19.08-55.8S1006.19,64,1008.71,84.14Z"/><path class="cls-1" d="M1070.27,371.66c2.48,19.8-6.82,37.27-20.77,39s-27.27-12.89-29.75-32.68,18.77-54.9,18.77-54.9S1067.79,351.86,1070.27,371.66Z"/><path class="cls-1" d="M1334.89,182.37c3.12,24.9-8.56,46.86-26.1,49.06s-34.29-16.2-37.41-41.09,23.6-69,23.6-69S1331.77,157.48,1334.89,182.37Z"/><path class="cls-1" d="M1536.24,356.82c3.88,30.91-10.63,58.19-32.42,60.92s-42.58-20.12-46.45-51,29.31-85.7,29.31-85.7S1532.37,325.91,1536.24,356.82Z"/><path class="cls-1" d="M1603.29,51.91c2.66,21.16-7.28,39.84-22.19,41.71s-29.16-13.77-31.81-34.94S1569.36,0,1569.36,0,1600.64,30.74,1603.29,51.91Z"/></g></g></svg>