<svg xmlns="http://www.w3.org/2000/svg" viewBox="0 0 2075.48 1393.88"><defs><style>.cls-1{fill:#77a5d0;}.cls-2{fill:#366eb3;}</style></defs><g id="Layer_2" data-name="Layer 2"><g id="Layer_5" data-name="Layer 5"><path class="cls-1" d="M1903.3,410.72a90.41,90.41,0,0,0,9.17-39.34c0-73.06-91.24-132.29-203.78-132.29-51.78,0-99,12.55-135,33.2-13-64.8-93.9-114.71-191.72-114.71a274.4,274.4,0,0,0-62.88,7.19C1292.73,70.43,1188.87,0,1064.77,0,938.71,0,833.54,72.65,809.23,169.24A173.15,173.15,0,0,0,602,235.8a106,106,0,0,0-171.34,63.53c-22.54-10.62-49.16-16.76-77.7-16.76-71,0-130.2,38-143.79,88.46C90.52,379.62,0,425.14,0,480c0,61,111.85,110.46,249.82,110.46,71.87,0,136.63-13.42,182.21-34.9a134,134,0,0,0,219.3,72.34c34.45,30.32,83.34,49.26,137.57,49.26a219.43,219.43,0,0,0,91.25-19.45A182.74,182.74,0,0,0,1174,596.39,229.86,229.86,0,0,0,1263.11,614c51,0,97.46-16.08,132.59-42.49a173.34,173.34,0,0,0,322-7.15c31,34.83,95,58.74,168.91,58.74,104.32,0,188.89-47.65,188.89-106.42C2075.48,461.12,1999.8,415.49,1903.3,410.72Z"/><path class="cls-2" d="M320.72,806.62c3.52,28-9.64,52.75-29.38,55.22s-38.6-18.23-42.11-46.25,26.56-77.68,26.56-77.68S317.21,778.6,320.72,806.62Z"/><path class="cls-2" d="M603.25,1004.11c2.92,23.28-8,43.82-24.41,45.87s-32.07-15.14-35-38.42S565.92,947,565.92,947,600.33,980.83,603.25,1004.11Z"/><path class="cls-2" d="M770.32,775.29C772.27,790.85,765,804.59,754,806s-21.44-10.13-23.39-25.69,14.76-43.16,14.76-43.16S768.37,759.72,770.32,775.29Z"/><path class="cls-2" d="M1555,1269.27c4.94,39.41-13.57,74.19-41.34,77.67s-54.29-25.64-59.24-65.06,37.38-109.27,37.38-109.27S1550.06,1229.86,1555,1269.27Z"/><path class="cls-2" d="M1139.18,1219.82c2.83,22.59-7.78,42.52-23.69,44.52s-31.11-14.7-34-37.29,21.42-62.62,21.42-62.62S1136.35,1197.24,1139.18,1219.82Z"/><path class="cls-2" d="M776.46,1322.26c4.54,36.21-12.46,68.16-38,71.36s-49.88-23.56-54.43-59.78,34.34-100.4,34.34-100.4S771.92,1286,776.46,1322.26Z"/><path class="cls-2" d="M958.31,964.25c3.8,30.35-10.44,57.12-31.83,59.8s-41.8-19.74-45.6-50.09,28.77-84.13,28.77-84.13S954.5,933.91,958.31,964.25Z"/><path class="cls-2" d="M1257.65,760.17c2.52,20.13-6.93,37.88-21.1,39.66s-27.72-13.09-30.25-33.22,19.08-55.79,19.08-55.79S1255.13,740.05,1257.65,760.17Z"/><path class="cls-2" d="M1319.21,1047.7c2.48,19.8-6.82,37.27-20.77,39s-27.27-12.89-29.75-32.69,18.77-54.89,18.77-54.89S1316.73,1027.9,1319.21,1047.7Z"/><path class="cls-2" d="M1583.83,858.41c3.12,24.89-8.56,46.86-26.1,49.05s-34.29-16.19-37.41-41.08,23.6-69,23.6-69S1580.71,833.52,1583.83,858.41Z"/><path class="cls-2" d="M1785.18,1032.86c3.88,30.91-10.63,58.18-32.42,60.92s-42.58-20.12-46.45-51,29.31-85.7,29.31-85.7S1781.31,1002,1785.18,1032.86Z"/><path class="cls-2" d="M1852.23,728c2.66,21.16-7.28,39.84-22.19,41.71s-29.16-13.77-31.81-34.94S1818.3,676,1818.3,676,1849.58,706.78,1852.23,728Z"/></g></g></svg>