<svg xmlns="http://www.w3.org/2000/svg" viewBox="0 0 775.36 632.88"><defs><style>.cls-1{fill:#70826a;}.cls-2{fill:#4f5b4a;}</style></defs><g id="Layer_2" data-name="Layer 2"><g id="Layer_5" data-name="Layer 5"><path class="cls-1" d="M387.17,23.43s-12.74,3.06-17.32,6.12S353.55,54,353.55,54s-81,9.17-86.61,13.25S244,73.36,240.45,80.49s-95.26,147.74-111,164S0,383.09,0,383.09s58.58,72.34,73.36,81.51c0,0,142.13-87.62,152.83-113.09,0,0-46.87,155.38-85.59,205.81,0,0,80.75,70.81,197.41,50.94,0,0,30.31-61.64,33.88-79.47l-10.74,84.57s97.34,36.82,229.79,9.31c0,0,25.48-259.95,41.78-279.31,0,0,21.9,207.34,20.37,222.11s83,34.13,122.27-17.32c0,0-15.28-131.94-29.55-160s-6.62-74.38-12.23-114.11-33.11-161-39.73-169.14S546.11,23.43,546.11,23.43L535.92,0s-10.18,4.58-11.2,11.21-13.76,45.34-49.93,53c0,0-21.9,22.92-21.39,39.73,0,0-5.61-20.88-10.19-24.45s-24.46-7.13-24.46-7.13Z"/><path class="cls-2" d="M349.81,59.77s-38,38.55-42.45,74.38c0,0,82.53-47.38,92.38-42.79,0,0-13.76-9.85-43.82,4.07S314.15,125,314.15,125,322.64,95.77,349.81,59.77Z"/><path class="cls-2" d="M502.64,84.91s72,25,82.87,41.43c0,0-.34-50.6-29.55-88.64,0,0,20.72,46.87,24.12,72.68C580.08,110.38,540.17,83,502.64,84.91Z"/><path class="cls-2" d="M290.43,210.55s2.8,27,8.17,27.61,21.06,0,21.06,0,17.63,24.83,32.24.26c0,0,15.69,4.6,29.67-5.7l5.15-26.06s2.15,26.45,0,28.78S364.8,243.8,359.43,244s-19.78,22.17-40.63.39l-24.93-2.73S284.2,220.66,290.43,210.55Z"/><path class="cls-2" d="M368.58,242.17s8.9,55.5-33,63.28c0,0,30.74,5.05,41.27-23.73s9.88-46.28,9.88-46.28Z"/><path class="cls-2" d="M496.19,223.38s2.72,28.84,8,29.47,20.52,0,20.52,0,17.18,26.49,31.42.27A32.81,32.81,0,0,0,585,247l5-27.81s2.1,28.22,0,30.71-21.36,8.93-26.59,9.13-19.27,23.66-39.59.42l-24.29-2.91S490.12,234.17,496.19,223.38Z"/><path class="cls-2" d="M572.33,257.12s8.68,59.23-32.16,67.53c0,0,30,5.4,40.21-25.32S590,249.94,590,249.94Z"/><circle class="cls-2" cx="436.67" cy="103.16" r="6.2"/><circle class="cls-2" cx="78.11" cy="428.77" r="8.75"/><circle class="cls-2" cx="697.5" cy="554.69" r="8.75"/><circle class="cls-2" cx="447.33" cy="212.31" r="5.65"/><circle class="cls-2" cx="437.42" cy="331.64" r="6.16"/><circle class="cls-2" cx="397.61" cy="450.59" r="6.88"/><path class="cls-2" d="M145.7,388.19S214.47,349,247.58,231.79c0,0,3.57,82-12.22,99.09S182.38,382.58,145.7,388.19Z"/><path class="cls-2" d="M638.82,327.22s4-89.82,25-103.14c0,0-12.76,116.37-5.18,149.54C658.63,373.62,635.21,366.55,638.82,327.22Z"/><path class="cls-2" d="M247.93,91.7s8.32,76.07-4.42,115"/><path class="cls-2" d="M65.11,327.42s54.12,54.1,68.54,92.4"/><path class="cls-2" d="M652.93,513.23s72.59-24.24,113.29-20"/><path class="cls-2" d="M688.75,114.11S663.28,164,659.21,199.7"/></g></g></svg>