<svg xmlns="http://www.w3.org/2000/svg" viewBox="0 0 1195.94 989.98"><defs><style>.cls-1{fill:#77a5d0;}</style></defs><g id="Layer_2" data-name="Layer 2"><g id="Layer_5" data-name="Layer 5"><path class="cls-1" d="M1179.57,105.28c-15.28-5.44-40.41,3.73-27.51-28.19s-27.17-27.51-40.75-28.53-40.76,10.87-53,2.72-33.62.34-36.68,17.66-38.38,32.94-43.47,31.92-9.85-17.32-19.7-9.51-56,5.1-57.74-3-12.9-22.76-36.68-21.06S833.5,53.32,826,40.07s-23.78-12.91-46.87-1.36-98.83-7.13-110-13.92S656.21,1,620.21,7.13s-16.64,13.58-23.77,22.41-70.3,21.06-72.68-7.47S425.27-3.06,407.27,8.49s.34,18-2,25.13-36,7.13-42.79,1.36,12.91-11.89-8.83-16.31-46.19,24.46-61.13,36.68-31.93,11.89-44.15,6.8S234.06,73,219.12,71.65s15.62-24.79-17-21.05S194,98.15,164.1,128s-73.7,13.25-87.62,8.83-52.3,3.06-71.32,46.19S24.52,245.2,42.52,246.9s43.13-8.15,90.34,6.79,58.07-2.37,68.6,5.44-3.74,11.54,23.43,25.13,68.95,2,72.68-6.11S285,266.6,286.71,258.45,355,227.88,378.4,234s-6.11,19.36,34.64,30.57,98.84-18.34,107.33-37.36,50.94-31.24,43.47-17S563.5,233,572,234s13.58-12.9,22.41-12.22,10.19,12.9,3.4,25.13-5.09,24.45,16.3,31.92,84.23-33.28,96.45-39.39,36.34,11.21,25.82,22.41-5.78,28.87-4.08,48.23S718.37,330.45,714,333.16s-32.26-2-35.32,12.91-6.79,3.74-29.89,6.11-25.47,38.72-8.83,34.64,24.46,13.25,23.78,19.7-11.89,9.17-4.76,15.63,14.27,29.54-3.39,31.92-16,12.57-19.7,15.62-13.93-.34-16.3,12.23,16.64-2.38,22.41,11.55-6.45,24.11-18.34,32.6-28.53,2-46.19,9.4-11.88,43.58-18.34,51.73-24.79.68-24.45-16.3-16.3-34.3-29.21-35.39S482.33,554.6,475.54,556s.67-8.49,0-16.31-24.12-2.37-29.89-1.35-27.85-2.38-34.64-2.72-19.7,12.23-25.13,10.19-17,6.79-26.5,10.87-17,1.35-22.41,5.43-25.47,5.43-32.6,4.75S273.8,578.71,263.61,594s26.49,19.36,7.47,34.65-12.56,19.69-10.87,23.77,32.61,5.43,33.29,17.66-17.66,7.47-27.85,6.79-13.59-21.39-21.74-35.32-19,5.1-26.49,15.62-10.53,5.78-25.13,8.16S162.4,678.56,152.21,702s3.06,45.17,2.72,55-13.92,11.21-19,11.55-13.24,20.38,6.8,30.57,19,27.85,12.22,33.28-7.47-6.11-12.22-10.87-8.83,3.74-17,4.76-8.49-9.51-17-13.59-16.3,5.1-21.73,10.87-32.61,1.7-40.22,15.62-11.75,17-27,25.13S13,899,13,905.09,24.52,919,19.08,925.47,16,938,31.31,947.88s19,21.74,12.23,23.77S37.42,990,37.42,990c20.72,0,27.85-14.59,31.25-28.85s-20-20.72-5.44-22.42,24.12-18,9.51-18.34-16.64-13.92,2-14.26,43.47-22.42,25.81-38S89,832.07,102,828s5.77,15.29,15.62,25.82,1.7-4.76,18.34,0S146.44,864,162.4,864s10.19-24.11,21.74-17,52,7.81,56.72-39.39S184.14,754,172.25,741.05s16.3-29.55,23.78-35.32,21.05,8.83,32.6,8.83-9.17-29.55,15.62-5.43,48.57,36,102.57-1-1.7-64.53-6.79-72.68-84.57-39.74-14.95-44.83,25.47,9.51,55.7,17,51.28-32.26,51.62-14.94,8.83,14.94,25.81,15.28,28.87-14.27,28.53-22.42,4.08-21.39,21.06-20.37-.68,16.3,15.62,36,22.34-11.94,32.61,12.22,12.22,33.29,62.49,29.89,33.62-36.34,33.28-53-13.92-11.89-22.42-8.83-10.52-22.76-4.75-32.61,22.75,30.91,29.89-7.47,10.86-30.9,27.85-27.17,13.92-19.36,6.79-26.85-7.47-48.88,11.55-28.17S719,444.9,719,431.32s-26.49-25.82-27.84-34.65,10.52-7.13,12.9-16.3-5.09-10.87,3.4-19,9.17,16,37.36,17.66,61.81-51.62,48.9-57.73-24.11-30.57,6.12-19.7,79.47,9.51,87.62.68,32.26,2.38,44.83,5.43,8.15,43.47,50.94,19,46.53-13.58,70-12.22,67.25,7.47,67.93-33.29-95.1-19.36-89-44.83,126.68-32.94,134.49-40.75,14.26-13.93-4.08-22.42-10.53-10.19,17-21S1194.86,110.71,1179.57,105.28ZM182.1,243.62c-7.36-2.61-16.87-8.38-22.87-7.7s-25.69-2.15-33.73-4.3-36.23-7.7-65.89.68S22,225.84,13.42,204.22s24.34-43.81,40.08-53.66,36.22,1.59,36.22,1.59c3.93,12.3-2.83,10-7.69,28.52s17.77,33.17,29.66,31.7,51.51,6.79,56.6,13.36,8.26-2.49,18.57,3.62S189.46,246.22,182.1,243.62Zm296.15-15.74c-3.51,8.61-32.15,16.64-60,19S404,216.56,404,216.56c3.51-.23,3.28,1.7,5.43,10.42s16.76,3.17,24.46,4.81S481.76,219.28,478.25,227.88ZM671,46c-2.49,7.69-21.39,9.51-41.2,0s-4.3-28.76-4.3-28.76c10.18-1.47,10.86,2.95,16.52,8.61s10.87.34,21.06,3.39S673.54,38.26,671,46ZM154.93,798.33s-19.13-11.09-14.72-19,11.21-4.08,12-1.36-1.81,8,.68,11.77S158.1,797.09,154.93,798.33ZM94.82,881.88c-1.25,5.77-11.66,7.93-16.53,6.79s4.08-3.39,9.06-7,2-12.22,2-12.22C94.37,870.67,96.06,876.11,94.82,881.88Zm85.24-124c2.61,4.76,29.1,6,14,8.5s-25.58-17.21-25.58-17.21C172.93,748.3,177.46,753.16,180.06,757.91ZM436.14,559.47C420.06,568.3,408,573.16,397,570.79s-9.5,3.05-16.35,3.39-15.35-4.64-21.24-2.71-9.28,6.68-15.39,5.43-14.15-3.74-26.95-1.81c0,0,15.85-8.15,25.14-7s15.05-7.47,20.37-7.47,21.63-4.53,24.68-7.25,20.49-11,24.91-9.28,20.26,1.81,24-.23S452.21,550.63,436.14,559.47Zm227.4-91.12c-1.9,3.44-1.25,11.74-8.56,12.69s-18.26,8.48-21.3-1.87c0,0,12.16-9.72,17.48-7.36s6.61-4.65,7.86-6.37S665.45,464.9,663.54,468.35Zm95-157.6c-3.84,7.24-5.09,23.77-13.35,26.26s-22.13,12.28-25.36,3.63c0,0,17.66-11.21,18.79-18.12s-9.74-38,0-46.41,14.49-5.78,17.43,1.81S762.4,303.5,758.55,310.75ZM784.48,79.81c-10.3,4.18-15.4,13.92-35.32,14.94S730.93,77.2,736.48,77.32s11.77-4.08,16.3-11.55,10.08-18.34,29.66-23.55S806,50.82,806,50.82C806.89,65.32,794.78,75.62,784.48,79.81Zm48.23,3.62c-9.85,4-18.23-4-20.83-11.32s12.67-4.19,12.67-4.19S842.55,79.47,832.71,83.43Zm258.22,206.15c8.27-6.79-4.07-22.64-4.07-22.64s19.13,4.41,22,15.85-11.44,21.62-17.21,18.79-20.83,4.07-20.83,4.07C1070.78,301.24,1082.67,296.37,1090.93,289.58Z"/></g></g></svg>