<svg xmlns="http://www.w3.org/2000/svg" viewBox="0 0 1842.42 1165.91"><defs><style>.cls-1{fill:#fde38c;}</style></defs><g id="Layer_2" data-name="Layer 2"><g id="Layer_4" data-name="Layer 4"><polygon class="cls-1" points="1275.07 369.09 1229.15 344.95 1183.23 369.09 1192 317.96 1154.86 281.75 1206.19 274.29 1229.15 227.77 1252.11 274.29 1303.45 281.75 1266.3 317.96 1275.07 369.09"/><polygon class="cls-1" points="611.62 413.26 580.18 396.73 548.75 413.26 554.75 378.25 529.32 353.46 564.47 348.36 580.18 316.51 595.9 348.36 631.05 353.46 605.62 378.25 611.62 413.26"/><polygon class="cls-1" points="1808.45 961.63 1753.5 932.74 1698.55 961.63 1709.05 900.44 1664.59 857.1 1726.03 848.17 1753.5 792.5 1780.98 848.17 1842.41 857.1 1797.96 900.44 1808.45 961.63"/><polygon class="cls-1" points="1349.99 782.71 1319.94 766.91 1289.89 782.71 1295.63 749.25 1271.32 725.55 1304.91 720.67 1319.94 690.23 1334.96 720.67 1368.56 725.55 1344.25 749.25 1349.99 782.71"/><polygon class="cls-1" points="1743.27 429.35 1720.3 417.27 1697.33 429.35 1701.72 403.77 1683.14 385.66 1708.82 381.93 1720.3 358.66 1731.79 381.93 1757.47 385.66 1738.88 403.77 1743.27 429.35"/><polygon class="cls-1" points="60.13 795.44 37.16 783.37 14.2 795.44 18.58 769.87 0 751.75 25.68 748.02 37.16 724.75 48.65 748.02 74.33 751.75 55.75 769.87 60.13 795.44"/><polygon class="cls-1" points="706.12 786.4 688.03 776.89 669.94 786.4 673.4 766.26 658.76 751.99 678.99 749.05 688.03 730.73 697.08 749.05 717.3 751.99 702.67 766.26 706.12 786.4"/><polygon class="cls-1" points="767.07 106.69 748.98 97.18 730.89 106.69 734.35 86.55 719.72 72.28 739.94 69.34 748.98 51.02 758.03 69.34 778.25 72.28 763.62 86.55 767.07 106.69"/><polygon class="cls-1" points="194.52 169.12 139.57 140.23 84.62 169.12 95.11 107.93 50.65 64.6 112.09 55.67 139.57 0 167.04 55.67 228.48 64.6 184.02 107.93 194.52 169.12"/><polygon class="cls-1" points="952.97 1165.91 917.9 1147.47 882.83 1165.91 889.52 1126.86 861.15 1099.2 900.36 1093.51 917.9 1057.98 935.43 1093.51 974.64 1099.2 946.27 1126.86 952.97 1165.91"/></g></g></svg>